<svg version="1" xmlns="http://www.w3.org/2000/svg" width="266.667" height="266.667" viewBox="0 0 200.000000 200.000000"><path d="M89 5.1C83.2 8 74.9 11.9 70.5 14c-4.4 2.1-16.5 7.9-27 13C33.1 32.1 20.7 38 16 40.2c-4.7 2.2-8.8 4.5-9.2 5.1-.9 1.4-.9 107.9 0 109.4.4.6 5 3.1 10.2 5.6 5.2 2.5 15.6 7.4 23 11 33.5 16.1 43.1 20.7 51.2 24.6l8.7 4.2 7.3-3.4c4-1.9 14.5-7 23.3-11.2 18.2-8.8 38.6-18.6 52.5-25.2 5.2-2.5 9.8-5.1 10.2-5.7.9-1.3.8-108.1-.1-109.4-.3-.5-4.6-2.9-9.6-5.2-4.9-2.4-18.6-8.9-30.4-14.6-11.7-5.7-21.5-10.4-21.7-10.4-.2 0-6.6-3.1-14.3-6.9-7.6-3.8-14.7-7.1-15.7-7.5C100.2.3 95.5 2 89 5.1z"/></svg>