<svg version="1" xmlns="http://www.w3.org/2000/svg" width="470.667" height="470.667" viewBox="0 0 353.000000 353.000000"><path d="M69 23.2c-1.4.6-4.3 1.1-6.5 1.2-3.2.1-4.2.6-5.1 2.6-1.6 3.4-2.4 65.8-2.4 194.2 0 74 .3 103.3 1.1 105.1 2.5 5.4-2.8 5.2 120.4 5.2s117.9.2 120.4-5.2c.8-1.8 1.1-30.9 1.1-104.4 0-111.2.2-106.1-5.7-111-1.7-1.3-3.8-3.7-4.8-5.2-3.5-5.5-8.5-5.6-8.5-.1 0 3.8-6.9 6.8-13.4 5.9-7.7-1.2-35.4-1.4-41.3-.3-10.1 1.8-16.9-4-15.9-13.7.8-7.6.8-35 .1-43.5-.7-6.8-.5-7.7 1.5-10.3 2-2.5 2.8-2.8 5.6-2.2 2.7.5 3.4.3 3.4-1 0-2.5-2.9-7.5-4.4-7.5-.7 0-3-2-5-4.4-3-3.7-4.3-4.5-8.3-5.1C193 22.3 71.8 22 69 23.2zm69 7.1l63.5.2-.5 8c-.3 4.4-.5 23.7-.5 42.8v34.9l2.4 1.9c2.3 1.9 4.1 1.9 43.8 1.7 22.8-.2 41.7 0 42 .4.4.7.3 34.8-.2 182.8 0 12.7-.9 15.5-5.3 16.7-3.6 1-209.9 1-213.5 0-5.7-1.6-5.5 2.3-5.8-116.2-.1-60-.3-111.7-.4-115-.6-30.1-.7-57.4-.1-58.4.6-.8 2.4-1 5.9-.6 2.9.3 33.8.7 68.7.8z"/><path d="M224.7 44.7c-.4.3-.7 1.7-.7 3 0 1.7 2.7 5.1 9 11.4 4.9 4.9 9.3 8.9 9.7 8.9.5 0 2.6 2.2 4.6 5 2.1 2.7 4.4 5 5.1 5 .8 0 3.3 2.7 5.7 6 2.4 3.3 4.7 6 5.2 6 .4 0 2.8 1.9 5.2 4.1 4.8 4.4 7.5 4.6 7.5.6 0-2.6-3.3-6.1-6.8-7.2-1.2-.3-2.8-1.8-3.6-3.3-1.9-3.7-6.2-7.6-7.5-6.8-.6.4-1.9-1.1-3.1-3.3-2.4-4.9-5.7-8.1-8.2-8.1-1.1 0-2.3-1.1-2.9-2.8-1.2-3.3-5.8-8.2-7.6-8.2-.7 0-2-1.5-2.9-3.3-3-5.9-6.8-9-8.7-7z"/></svg>